<svg width="317" height="245" viewBox="0 0 317 245" fill="none" xmlns="http://www.w3.org/2000/svg">
<path d="M3.792 26.144C2.672 26.144 1.84 25.768 1.296 25.016C0.76 24.256 0.492 23.188 0.492 21.812C0.492 20.436 0.76 19.372 1.296 18.62C1.84 17.86 2.672 17.48 3.792 17.48C4.224 17.48 4.604 17.54 4.932 17.66C5.268 17.772 5.556 17.932 5.796 18.14C6.036 18.348 6.232 18.6 6.384 18.896C6.544 19.192 6.668 19.524 6.756 19.892L5.076 20.3C5.028 20.1 4.972 19.916 4.908 19.748C4.844 19.58 4.76 19.436 4.656 19.316C4.56 19.196 4.436 19.104 4.284 19.04C4.14 18.968 3.964 18.932 3.756 18.932C3.268 18.932 2.92 19.124 2.712 19.508C2.512 19.884 2.412 20.408 2.412 21.08V22.544C2.412 23.216 2.512 23.744 2.712 24.128C2.92 24.504 3.268 24.692 3.756 24.692C4.172 24.692 4.472 24.564 4.656 24.308C4.848 24.052 4.988 23.724 5.076 23.324L6.756 23.732C6.668 24.1 6.544 24.432 6.384 24.728C6.232 25.024 6.036 25.28 5.796 25.496C5.556 25.704 5.268 25.864 4.932 25.976C4.604 26.088 4.224 26.144 3.792 26.144ZM10.7953 26.144C10.3153 26.144 9.88331 26.072 9.49931 25.928C9.11531 25.776 8.78731 25.56 8.51531 25.28C8.25131 25 8.04731 24.66 7.90331 24.26C7.75931 23.86 7.68731 23.408 7.68731 22.904C7.68731 22.4 7.75931 21.948 7.90331 21.548C8.04731 21.148 8.25131 20.808 8.51531 20.528C8.78731 20.248 9.11531 20.036 9.49931 19.892C9.88331 19.74 10.3153 19.664 10.7953 19.664C11.2753 19.664 11.7073 19.74 12.0913 19.892C12.4753 20.036 12.7993 20.248 13.0633 20.528C13.3353 20.808 13.5433 21.148 13.6873 21.548C13.8313 21.948 13.9033 22.4 13.9033 22.904C13.9033 23.408 13.8313 23.86 13.6873 24.26C13.5433 24.66 13.3353 25 13.0633 25.28C12.7993 25.56 12.4753 25.776 12.0913 25.928C11.7073 26.072 11.2753 26.144 10.7953 26.144ZM10.7953 24.824C11.1953 24.824 11.5073 24.7 11.7313 24.452C11.9553 24.204 12.0673 23.852 12.0673 23.396V22.412C12.0673 21.956 11.9553 21.604 11.7313 21.356C11.5073 21.108 11.1953 20.984 10.7953 20.984C10.3953 20.984 10.0833 21.108 9.85931 21.356C9.63531 21.604 9.52331 21.956 9.52331 22.412V23.396C9.52331 23.852 9.63531 24.204 9.85931 24.452C10.0833 24.7 10.3953 24.824 10.7953 24.824ZM14.7506 26V19.808H16.1786V20.72H16.2626C16.3586 20.432 16.4946 20.184 16.6706 19.976C16.8546 19.768 17.1106 19.664 17.4386 19.664C18.0386 19.664 18.4066 20.016 18.5426 20.72H18.6146C18.6626 20.576 18.7226 20.44 18.7946 20.312C18.8666 20.184 18.9546 20.072 19.0586 19.976C19.1626 19.88 19.2866 19.804 19.4306 19.748C19.5746 19.692 19.7426 19.664 19.9346 19.664C20.7986 19.664 21.2306 20.3 21.2306 21.572V26H19.8026V21.752C19.8026 21.464 19.7506 21.264 19.6466 21.152C19.5506 21.032 19.4226 20.972 19.2626 20.972C19.1106 20.972 18.9786 21.024 18.8666 21.128C18.7626 21.224 18.7106 21.376 18.7106 21.584V26H17.2706V21.752C17.2706 21.464 17.2226 21.264 17.1266 21.152C17.0386 21.032 16.9146 20.972 16.7546 20.972C16.5946 20.972 16.4586 21.024 16.3466 21.128C16.2346 21.224 16.1786 21.376 16.1786 21.584V26H14.7506ZM21.9459 26V19.808H23.3739V20.72H23.4579C23.5539 20.432 23.6899 20.184 23.8659 19.976C24.0499 19.768 24.3059 19.664 24.6339 19.664C25.2339 19.664 25.6019 20.016 25.7379 20.72H25.8099C25.8579 20.576 25.9179 20.44 25.9899 20.312C26.0619 20.184 26.1499 20.072 26.2539 19.976C26.3579 19.88 26.4819 19.804 26.6259 19.748C26.7699 19.692 26.9379 19.664 27.1299 19.664C27.9939 19.664 28.4259 20.3 28.4259 21.572V26H26.9979V21.752C26.9979 21.464 26.9459 21.264 26.8419 21.152C26.7459 21.032 26.6179 20.972 26.4579 20.972C26.3059 20.972 26.1739 21.024 26.0619 21.128C25.9579 21.224 25.9059 21.376 25.9059 21.584V26H24.4659V21.752C24.4659 21.464 24.4179 21.264 24.3219 21.152C24.2339 21.032 24.1099 20.972 23.9499 20.972C23.7899 20.972 23.6539 21.024 23.5419 21.128C23.4299 21.224 23.3739 21.376 23.3739 21.584V26H21.9459ZM34.6253 26C34.2573 26 33.9613 25.908 33.7373 25.724C33.5133 25.532 33.3813 25.26 33.3413 24.908H33.2813C33.1693 25.316 32.9453 25.624 32.6093 25.832C32.2813 26.04 31.8773 26.144 31.3973 26.144C30.7973 26.144 30.3133 25.984 29.9453 25.664C29.5853 25.336 29.4053 24.88 29.4053 24.296C29.4053 23.648 29.6413 23.168 30.1133 22.856C30.5853 22.544 31.2773 22.388 32.1893 22.388H33.1853V22.076C33.1853 21.708 33.0973 21.432 32.9213 21.248C32.7533 21.056 32.4653 20.96 32.0573 20.96C31.6813 20.96 31.3773 21.032 31.1453 21.176C30.9133 21.32 30.7133 21.508 30.5452 21.74L29.5732 20.876C29.7813 20.524 30.1053 20.236 30.5452 20.012C30.9933 19.78 31.5653 19.664 32.2613 19.664C33.1093 19.664 33.7693 19.86 34.2413 20.252C34.7213 20.636 34.9613 21.22 34.9613 22.004V24.716H35.6453V26H34.6253ZM32.0693 24.98C32.3813 24.98 32.6453 24.904 32.8613 24.752C33.0773 24.6 33.1853 24.38 33.1853 24.092V23.348H32.2373C31.5093 23.348 31.1453 23.592 31.1453 24.08V24.32C31.1453 24.536 31.2293 24.7 31.3973 24.812C31.5653 24.924 31.7893 24.98 32.0693 24.98ZM36.7566 26V19.808H38.5326V20.936H38.6046C38.6766 20.76 38.7646 20.596 38.8686 20.444C38.9726 20.292 39.0966 20.16 39.2406 20.048C39.3926 19.928 39.5646 19.836 39.7566 19.772C39.9566 19.7 40.1806 19.664 40.4286 19.664C40.7246 19.664 40.9966 19.716 41.2446 19.82C41.4926 19.916 41.7046 20.064 41.8806 20.264C42.0566 20.464 42.1926 20.708 42.2886 20.996C42.3926 21.284 42.4446 21.616 42.4446 21.992V26H40.6686V22.232C40.6686 21.432 40.3206 21.032 39.6246 21.032C39.4886 21.032 39.3526 21.052 39.2166 21.092C39.0886 21.124 38.9726 21.18 38.8686 21.26C38.7646 21.332 38.6806 21.424 38.6166 21.536C38.5606 21.648 38.5326 21.78 38.5326 21.932V26H36.7566ZM47.8879 24.872H47.8039C47.6439 25.248 47.4199 25.556 47.1319 25.796C46.8519 26.028 46.4639 26.144 45.9679 26.144C45.6239 26.144 45.3079 26.08 45.0199 25.952C44.7399 25.824 44.4959 25.628 44.2879 25.364C44.0879 25.1 43.9279 24.764 43.8079 24.356C43.6959 23.948 43.6399 23.464 43.6399 22.904C43.6399 22.344 43.6959 21.86 43.8079 21.452C43.9279 21.044 44.0879 20.708 44.2879 20.444C44.4959 20.18 44.7399 19.984 45.0199 19.856C45.3079 19.728 45.6239 19.664 45.9679 19.664C46.2159 19.664 46.4359 19.696 46.6279 19.76C46.8199 19.824 46.9879 19.912 47.1319 20.024C47.2839 20.136 47.4119 20.272 47.5159 20.432C47.6279 20.584 47.7239 20.752 47.8039 20.936H47.8879V17.12H49.6639V26H47.8879V24.872ZM46.7359 24.764C47.0479 24.764 47.3159 24.688 47.5399 24.536C47.7719 24.384 47.8879 24.144 47.8879 23.816V21.992C47.8879 21.664 47.7719 21.424 47.5399 21.272C47.3159 21.12 47.0479 21.044 46.7359 21.044C46.3359 21.044 46.0279 21.168 45.8119 21.416C45.5959 21.656 45.4879 21.992 45.4879 22.424V23.384C45.4879 23.816 45.5959 24.156 45.8119 24.404C46.0279 24.644 46.3359 24.764 46.7359 24.764ZM58.3305 17.624H61.0305C62.1585 17.624 62.9945 17.984 63.5385 18.704C64.0825 19.424 64.3545 20.46 64.3545 21.812C64.3545 23.164 64.0825 24.2 63.5385 24.92C62.9945 25.64 62.1585 26 61.0305 26H58.3305V17.624ZM60.9105 24.584C61.4465 24.584 61.8385 24.412 62.0865 24.068C62.3345 23.724 62.4585 23.224 62.4585 22.568V21.044C62.4585 20.396 62.3345 19.9 62.0865 19.556C61.8385 19.212 61.4465 19.04 60.9105 19.04H60.1065V24.584H60.9105ZM68.7418 19.016C68.3418 19.016 68.0618 18.936 67.9018 18.776C67.7498 18.608 67.6738 18.408 67.6738 18.176V17.828C67.6738 17.588 67.7498 17.388 67.9018 17.228C68.0618 17.068 68.3418 16.988 68.7418 16.988C69.1418 16.988 69.4178 17.068 69.5698 17.228C69.7298 17.388 69.8098 17.588 69.8098 17.828V18.176C69.8098 18.408 69.7298 18.608 69.5698 18.776C69.4178 18.936 69.1418 19.016 68.7418 19.016ZM65.8858 24.62H67.8538V21.188H65.8858V19.808H69.6298V24.62H71.4538V26H65.8858V24.62ZM75.8051 26.144C75.3171 26.144 74.8771 26.072 74.4851 25.928C74.1011 25.776 73.7731 25.56 73.5011 25.28C73.2371 25 73.0331 24.66 72.8891 24.26C72.7451 23.86 72.6731 23.408 72.6731 22.904C72.6731 22.4 72.7451 21.948 72.8891 21.548C73.0331 21.148 73.2371 20.808 73.5011 20.528C73.7731 20.248 74.1011 20.036 74.4851 19.892C74.8771 19.74 75.3131 19.664 75.7931 19.664C76.4731 19.664 77.0171 19.804 77.4251 20.084C77.8411 20.356 78.1571 20.72 78.3731 21.176L77.0051 21.92C76.8931 21.68 76.7451 21.48 76.5611 21.32C76.3851 21.16 76.1291 21.08 75.7931 21.08C75.3851 21.08 75.0691 21.2 74.8451 21.44C74.6291 21.672 74.5211 21.992 74.5211 22.4V23.408C74.5211 23.816 74.6291 24.14 74.8451 24.38C75.0691 24.612 75.3931 24.728 75.8171 24.728C76.1611 24.728 76.4291 24.648 76.6211 24.488C76.8211 24.328 76.9891 24.12 77.1251 23.864L78.4691 24.632C78.2451 25.088 77.9171 25.456 77.4851 25.736C77.0611 26.008 76.5011 26.144 75.8051 26.144ZM83.2284 26C82.5884 26 82.1124 25.832 81.8004 25.496C81.4884 25.16 81.3324 24.732 81.3324 24.212V21.188H79.6524V19.808H80.7444C81.0084 19.808 81.1964 19.756 81.3084 19.652C81.4204 19.548 81.4764 19.356 81.4764 19.076V17.624H83.1084V19.808H85.5204V21.188H83.1084V24.62H85.5204V26H83.2284ZM90.3278 19.016C89.9278 19.016 89.6478 18.936 89.4878 18.776C89.3358 18.608 89.2598 18.408 89.2598 18.176V17.828C89.2598 17.588 89.3358 17.388 89.4878 17.228C89.6478 17.068 89.9278 16.988 90.3278 16.988C90.7278 16.988 91.0038 17.068 91.1558 17.228C91.3158 17.388 91.3958 17.588 91.3958 17.828V18.176C91.3958 18.408 91.3158 18.608 91.1558 18.776C91.0038 18.936 90.7278 19.016 90.3278 19.016ZM87.4718 24.62H89.4398V21.188H87.4718V19.808H91.2158V24.62H93.0398V26H87.4718V24.62ZM97.1391 26.144C96.6591 26.144 96.2271 26.072 95.8431 25.928C95.4591 25.776 95.1311 25.56 94.8591 25.28C94.5951 25 94.3911 24.66 94.2471 24.26C94.1031 23.86 94.0311 23.408 94.0311 22.904C94.0311 22.4 94.1031 21.948 94.2471 21.548C94.3911 21.148 94.5951 20.808 94.8591 20.528C95.1311 20.248 95.4591 20.036 95.8431 19.892C96.2271 19.74 96.6591 19.664 97.1391 19.664C97.6191 19.664 98.0511 19.74 98.4351 19.892C98.8191 20.036 99.1431 20.248 99.4071 20.528C99.6791 20.808 99.8871 21.148 100.031 21.548C100.175 21.948 100.247 22.4 100.247 22.904C100.247 23.408 100.175 23.86 100.031 24.26C99.8871 24.66 99.6791 25 99.4071 25.28C99.1431 25.56 98.8191 25.776 98.4351 25.928C98.0511 26.072 97.6191 26.144 97.1391 26.144ZM97.1391 24.824C97.5391 24.824 97.8511 24.7 98.0751 24.452C98.2991 24.204 98.4111 23.852 98.4111 23.396V22.412C98.4111 21.956 98.2991 21.604 98.0751 21.356C97.8511 21.108 97.5391 20.984 97.1391 20.984C96.7391 20.984 96.4271 21.108 96.2031 21.356C95.9791 21.604 95.8671 21.956 95.8671 22.412V23.396C95.8671 23.852 95.9791 24.204 96.2031 24.452C96.4271 24.7 96.7391 24.824 97.1391 24.824ZM101.514 26V19.808H103.29V20.936H103.362C103.434 20.76 103.522 20.596 103.626 20.444C103.73 20.292 103.854 20.16 103.998 20.048C104.15 19.928 104.322 19.836 104.514 19.772C104.714 19.7 104.938 19.664 105.186 19.664C105.482 19.664 105.754 19.716 106.002 19.82C106.25 19.916 106.462 20.064 106.638 20.264C106.814 20.464 106.95 20.708 107.046 20.996C107.15 21.284 107.202 21.616 107.202 21.992V26H105.426V22.232C105.426 21.432 105.078 21.032 104.382 21.032C104.246 21.032 104.11 21.052 103.974 21.092C103.846 21.124 103.73 21.18 103.626 21.26C103.522 21.332 103.438 21.424 103.374 21.536C103.318 21.648 103.29 21.78 103.29 21.932V26H101.514ZM113.774 26C113.406 26 113.11 25.908 112.886 25.724C112.662 25.532 112.53 25.26 112.49 24.908H112.43C112.318 25.316 112.094 25.624 111.758 25.832C111.43 26.04 111.026 26.144 110.546 26.144C109.946 26.144 109.462 25.984 109.094 25.664C108.734 25.336 108.554 24.88 108.554 24.296C108.554 23.648 108.79 23.168 109.262 22.856C109.734 22.544 110.426 22.388 111.338 22.388H112.334V22.076C112.334 21.708 112.246 21.432 112.07 21.248C111.902 21.056 111.614 20.96 111.206 20.96C110.83 20.96 110.526 21.032 110.294 21.176C110.062 21.32 109.862 21.508 109.694 21.74L108.722 20.876C108.93 20.524 109.254 20.236 109.694 20.012C110.142 19.78 110.714 19.664 111.41 19.664C112.258 19.664 112.918 19.86 113.39 20.252C113.87 20.636 114.11 21.22 114.11 22.004V24.716H114.794V26H113.774ZM111.218 24.98C111.53 24.98 111.794 24.904 112.01 24.752C112.226 24.6 112.334 24.38 112.334 24.092V23.348H111.386C110.658 23.348 110.294 23.592 110.294 24.08V24.32C110.294 24.536 110.378 24.7 110.546 24.812C110.714 24.924 110.938 24.98 111.218 24.98ZM116.013 24.62H117.441V21.188H116.013V19.808H119.217V21.56H119.301C119.357 21.336 119.433 21.12 119.529 20.912C119.633 20.696 119.761 20.508 119.913 20.348C120.073 20.18 120.265 20.048 120.489 19.952C120.713 19.856 120.977 19.808 121.281 19.808H121.869V21.44H120.549C120.109 21.44 119.777 21.572 119.553 21.836C119.329 22.092 119.217 22.408 119.217 22.784V24.62H121.257V26H116.013V24.62ZM127.48 19.808H129.292L126.376 26.996C126.192 27.452 125.948 27.8 125.644 28.04C125.34 28.28 124.924 28.4 124.396 28.4H123.172V27.02H124.66L125.044 25.964L122.548 19.808H124.456L125.356 22.412L125.92 24.212H126.016L126.556 22.412L127.48 19.808Z" fill="#A8CED0"/>
<path d="M82.647 244L213.256 244H316V1H185.755L141.067 37.2592L130.755 45.8469H21" stroke="#3B494D" stroke-width="0.98815"/>
</svg>
